<svg xmlns="http://www.w3.org/2000/svg" viewBox="0 0 796.278 452.306"><path fill="#d8d8d8" d="M.139.153h796v452h-796z"/><path d="M429.077 198.913a17.272 17.272 0 1 0 17.272 17.272 17.272 17.272 0 0 0-17.272-17.272zm0 27.24a9.968 9.968 0 1 1 9.969-9.968 9.968 9.968 0 0 1-9.969 9.968z" fill="#b9b9b9"/><path d="M462.693 179.82H313.029a2.843 2.843 0 0 0-2.835 2.834v113.997a2.843 2.843 0 0 0 2.835 2.835h149.664a2.843 2.843 0 0 0 2.835-2.835V182.654a2.843 2.843 0 0 0-2.835-2.834zM318.03 291.486v-40.701l33.868-32.75 23.056 21.697a4.001 4.001 0 0 0 5.628-.143l9.03-9.415 63.348 61.312zm139.517-6.706l-65.22-63.15a3.946 3.946 0 0 0-2.861-1.143 4 4 0 0 0-2.826 1.23l-9.089 9.474-22.95-21.596a4 4 0 0 0-5.522.037l-31.049 30.025v-52.05h139.517z" fill="#b9b9b9"/></svg>